# xmcd
# 
# Track frame offsets:
#     150
#     31448
#     64455
#     96607
#     122205
#     139739
#     178546
#     202915
#     231111
#     253317
#     277512
#     305665
#     344195
# 
# Disc length: 4676
# 
# Revision: 6
# Processed by: cddbd v1.5.2PL0 Copyright (c) Steve Scherf et al.
# Submitted via: fre:ac v1.0.17
# 
DISCID=cc12420d
DTITLE=Cohen, Leonard - Live In London [CD2]
DYEAR=2009
DGENRE=Folkrock
TTITLE0=Boogie Street
TTITLE1=Hallelujah
TTITLE2=Democracy
TTITLE3=I'm Your Man
TTITLE4=Recitation
TTITLE5=Take This Waltz
TTITLE6=So Long, Marianne
TTITLE7=First We Take Manhattan
TTITLE8=Sisters Of Mercy
TTITLE9=If It Be Your Will
TTITLE10=Closing Time
TTITLE11=I Tried To Leave You
TTITLE12=Whither Thou Goest
EXTD=
EXTT0=
EXTT1=
EXTT2=
EXTT3=
EXTT4=
EXTT5=
EXTT6=
EXTT7=
EXTT8=
EXTT9=
EXTT10=
EXTT11=
EXTT12=
PLAYORDER=
